{"title":"Primal Fear (1996) Edward Norton+R.Gere[WIDESCR-Opt.Swesubs]","uid":4226474,"size":727085349,"categoryP":"video","categoryS":"movies","magnet":"?xt=urn:btih:1b1dc5bf3ce9c8f1cbc5b5cecc04a833cd52d5bf&amp;dn=Primal+Fear+%281996%29+Edward+Norton%2BR.Gere%5BWIDESCR-Opt.Swesubs%5D&amp;tr=udp%3A%2F%2Ftracker.openbittorrent.com%3A80&amp;tr=udp%3A%2F%2Fopen.demonii.com%3A1337&amp;tr=udp%3A%2F%2Ftracker.coppersurfer.tk%3A6969&amp;tr=udp%3A%2F%2Fexodus.desync.com%3A6969","seeders":4,"leechers":2,"uploader":"Kuthumi","files":-1,"time":1212853853,"description":"Optional Swedish subtitles in separate idx/sub files. &lt;a href=&quot;\nhttp://www.imdb.com/title/tt0117381/&quot; rel=&quot;nofollow&quot; target=&quot;_NEW&quot;&gt;\nhttp://www.imdb.com/title/tt0117381/&lt;/a&gt;\n\nAmazing acting by Edward Norton (then 26) as the split-personality altar boy who allegedly has butchered his beloved bishop. Norton was deservedly given an Oscar-nomination for this part in one of his first films; years before he made 'American History X' and 'Fight Club'. \n\nDVDrip, widescreen, XviD 2-pass 704x384, good stereo sound, AC3.\nBurn tested, runs well in my DivX player.\n\nMy new ripping procedure now gives good quality for a 2 hour film in just 700 MiB.\n\nFormat/Info                      : Audio Video Interleave\nFile size                        : 692 MiB\nDuration                         : 2h 5mn\nOveral bit rate                  : 774 Kbps\n\nVideo\nFormat                           : MPEG-4 Visual\nFormat profile                   : Streaming Video@L1\nFormat settings, BVOP            : Yes\nFormat settings, QPel            : No\nFormat settings, GMC             : No warppoints\nFormat settings, Matrix          : Default\nMuxing mode                      : Packet Bitstream\nCodec ID                         : XVID\nCodec ID/Hint                    : XviD\nDuration                         : 2h 5mn\nBit rate                         : 636 Kbps\nWidth                            : 704 pixels\nHeight                           : 384 pixels\nDisplay aspect ratio             : 16/9\nFrame rate                       : 25.000 fps\nResolution                       : 8 bits\nColorimetry                      : 4:2:0\nScan type                        : Progressive\nBits/(Pixel*Frame)               : 0.094\nStream size                      : 569 MiB\nWriting library                  : XviD 1.2.0.dev47 (UTC 2006-11-01)\n\nAudio\nFormat                           : MPEG Audio\nFormat version                   : Version 1\nFormat profile                   : Layer 3\nCodec ID                         : 55\nCodec ID/Hint                    : MP3\nDuration                         : 2h 5mn\nBit rate mode                    : Constant\nBit rate                         : 128 Kbps\nMinimum bit rate                 : 128 Kbps\nChannel(s)                       : 2 channels\nSampling rate                    : 48.0 KHz\nResolution                       : 16 bits\nStream size                      : 115 MiB\nWriting library                  : LAME3.97 \nEncoding settings                : CBR\n\nSource: PAL DVD Retail 7.5 GiB\n","torrent":{"xt":"urn:btih:1b1dc5bf3ce9c8f1cbc5b5cecc04a833cd52d5bf","amp;dn":"Primal+Fear+%281996%29+Edward+Norton%2BR.Gere%5BWIDESCR-Opt.Swesubs%5D","amp;tr":["udp%3A%2F%2Ftracker.openbittorrent.com%3A80","udp%3A%2F%2Fopen.demonii.com%3A1337","udp%3A%2F%2Ftracker.coppersurfer.tk%3A6969","udp%3A%2F%2Fexodus.desync.com%3A6969"],"infoHash":"1b1dc5bf3ce9c8f1cbc5b5cecc04a833cd52d5bf","infoHashBuffer":{"type":"Buffer","data":[27,29,197,191,60,233,200,241,203,197,181,206,204,4,168,51,205,82,213,191]},"announce":[],"urlList":[]}}